<?xml version="1.0" encoding="iso-8859-1"?>
<!-- Generator: Adobe Illustrator 19.0.0, SVG Export Plug-In . SVG Version: 6.00 Build 0)  -->
<svg width="20px" height="20px" version="1.1" id="Layer_1" xmlns="http://www.w3.org/2000/svg" xmlns:xlink="http://www.w3.org/1999/xlink" x="0px" y="0px"
	 viewBox="0 0 512.001 512.001" style="enable-background:new 0 0 512.001 512.001;" xml:space="preserve">
<g>
	<g>
		<path d="M72.519,313.78v7.86c0,25.409,10.701,51.112,29.598,70.519c19.627,20.156,45.074,31.257,71.902,31.257
			s52.426-11.101,72.053-31.257c18.898-19.407,29.749-45.11,29.749-70.519v-7.86H72.519z M234.798,381.192
			c-16.644,17.092-38.228,26.505-60.778,26.505c-22.55,0-44.135-9.413-60.778-26.505c-14.095-14.475-22.917-32.958-24.867-51.692
			h171.29C257.714,348.234,248.893,366.717,234.798,381.192z"/>
	</g>
</g>
<g>
	<g>
		<path d="M239.038,204.795c-16.284,0-29.532,13.248-29.532,29.533c0,16.284,13.248,29.532,29.532,29.532
			c16.285,0,29.533-13.248,29.533-29.532S255.324,204.795,239.038,204.795z M239.038,248.141c-7.617,0-13.813-6.197-13.813-13.813
			c0-7.618,6.197-13.814,13.813-13.814c7.618,0,13.814,6.197,13.814,13.814C252.852,241.945,246.656,248.141,239.038,248.141z"/>
	</g>
</g>
<g>
	<g>
		<path d="M102.986,204.795c-16.284,0-29.532,13.248-29.532,29.533c0,16.284,13.248,29.532,29.532,29.532
			s29.532-13.248,29.532-29.532S119.27,204.795,102.986,204.795z M102.986,248.141c-7.617,0-13.813-6.197-13.813-13.813
			c0-7.618,6.197-13.814,13.813-13.814s13.813,6.197,13.813,13.814C116.799,241.945,110.602,248.141,102.986,248.141z"/>
	</g>
</g>
<g>
	<g>
		<path d="M425.824,45.859H375.15c-47.517,0-86.176,38.659-86.176,86.176v29.466c-31.6-27.768-72.54-43.399-114.954-43.399
			C78.065,118.103,0,196.167,0,292.122s78.065,174.02,174.019,174.02c95.955,0,174.02-78.065,174.02-174.02
			c0-4.604-0.204-9.222-0.564-13.813h78.349c47.517,0,86.176-38.659,86.176-86.176v-60.097
			C512,84.518,473.342,45.859,425.824,45.859z M174.019,450.423c-87.286,0-158.3-71.014-158.3-158.301s71.014-158.301,158.3-158.301
			c43.414,0,85.13,18.004,114.954,49.484v95.003h42.732c0.396,4.586,0.614,9.207,0.614,13.813
			C332.32,379.409,261.306,450.423,174.019,450.423z M496.281,192.132c0,38.85-31.607,70.457-70.457,70.457H304.693V132.035
			c0-38.85,31.607-70.457,70.457-70.457h50.674c38.85,0,70.457,31.607,70.457,70.457V192.132z"/>
	</g>
</g>
<g>
	<g>
		<rect x="352.322" y="90.565" width="95.364" height="15.719"/>
	</g>
</g>
<g>
	<g>
		<rect x="335.555" y="123.051" width="128.898" height="15.719"/>
	</g>
</g>
<g>
	<g>
		<rect x="335.555" y="153.442" width="128.898" height="15.719"/>
	</g>
</g>
<g>
	<g>
		<rect x="335.555" y="185.929" width="128.898" height="15.719"/>
	</g>
</g>
<g>
	<g>
		<rect x="335.555" y="218.415" width="89.076" height="15.719"/>
	</g>
</g>
<g>
	<g>
		<path d="M187.834,275.768c0,3.633-2.956,6.59-6.59,6.59h-14.449c-3.633,0-6.59-2.956-6.59-6.59h-15.719
			c0,12.301,10.008,22.309,22.309,22.309h14.449c12.301,0,22.309-10.008,22.309-22.309H187.834z"/>
	</g>
</g>
<g>
</g>
<g>
</g>
<g>
</g>
<g>
</g>
<g>
</g>
<g>
</g>
<g>
</g>
<g>
</g>
<g>
</g>
<g>
</g>
<g>
</g>
<g>
</g>
<g>
</g>
<g>
</g>
<g>
</g>
</svg>
